<svg width="24" height="24" viewBox="0 0 24 24" fill="none" xmlns="http://www.w3.org/2000/svg">
<path d="M16.3547 11.2828C17.1422 10.4625 17.625 9.35391 17.625 8.13516V7.89609C17.625 5.37422 15.5602 3.32812 13.0148 3.32812H6.07969C5.72578 3.32812 5.4375 3.61641 5.4375 3.97031V19.8867C5.4375 20.2687 5.74688 20.5781 6.12891 20.5781H13.5984C16.3406 20.5781 18.5625 18.3703 18.5625 15.6445V15.3867C18.5625 13.6758 17.6859 12.1687 16.3547 11.2828ZM7.6875 5.57812H12.9539C14.2922 5.57812 15.375 6.61875 15.375 7.90547V8.12812C15.375 9.4125 14.2898 10.4555 12.9539 10.4555H7.6875V5.57812ZM16.2797 15.6422C16.2797 17.1164 15.068 18.3117 13.5727 18.3117H7.6875V12.7195H13.5727C15.068 12.7195 16.2797 13.9148 16.2797 15.3891V15.6422Z" fill="black"/>
</svg>
