<svg width="24" height="24" viewBox="0 0 24 24" fill="none" xmlns="http://www.w3.org/2000/svg">
<path d="M10 4V11H4V4H2V20H4V13H10V20H12V4H10Z" fill="black"/>
<path d="M21.729 10L21.731 8H14.5V10H18.878L15.702 13.283L17.109 14.798C17.365 14.68 17.655 14.612 17.963 14.612C19.003 14.612 19.847 15.38 19.847 16.326C19.847 17.273 19.003 18.041 17.963 18.041C17.046 18.041 16.282 17.444 16.114 16.655L14 17.029C14.36 18.722 15.998 20 17.963 20C20.193 20 22 18.355 22 16.326C22 14.635 20.744 13.209 19.032 12.783L21.73 10H21.729Z" fill="black"/>
</svg>
