<svg width="24" height="24" viewBox="0 0 24 24" fill="none" xmlns="http://www.w3.org/2000/svg">
<path fill-rule="evenodd" clip-rule="evenodd" d="M7.5 17.25C7.5 17.0511 7.57902 16.8603 7.71967 16.7197C7.86032 16.579 8.05109 16.5 8.25 16.5H21.75C21.9489 16.5 22.1397 16.579 22.2803 16.7197C22.421 16.8603 22.5 17.0511 22.5 17.25C22.5 17.4489 22.421 17.6397 22.2803 17.7803C22.1397 17.921 21.9489 18 21.75 18H8.25C8.05109 18 7.86032 17.921 7.71967 17.7803C7.57902 17.6397 7.5 17.4489 7.5 17.25ZM7.5 11.25C7.5 11.0511 7.57902 10.8603 7.71967 10.7197C7.86032 10.579 8.05109 10.5 8.25 10.5H21.75C21.9489 10.5 22.1397 10.579 22.2803 10.7197C22.421 10.8603 22.5 11.0511 22.5 11.25C22.5 11.4489 22.421 11.6397 22.2803 11.7803C22.1397 11.921 21.9489 12 21.75 12H8.25C8.05109 12 7.86032 11.921 7.71967 11.7803C7.57902 11.6397 7.5 11.4489 7.5 11.25ZM7.5 5.25C7.5 5.05109 7.57902 4.86032 7.71967 4.71967C7.86032 4.57902 8.05109 4.5 8.25 4.5H21.75C21.9489 4.5 22.1397 4.57902 22.2803 4.71967C22.421 4.86032 22.5 5.05109 22.5 5.25C22.5 5.44891 22.421 5.63968 22.2803 5.78033C22.1397 5.92098 21.9489 6 21.75 6H8.25C8.05109 6 7.86032 5.92098 7.71967 5.78033C7.57902 5.63968 7.5 5.44891 7.5 5.25Z" fill="black"/>
<path d="M2.5695 17.7985V17.0875H3C3.3255 17.0875 3.5445 16.882 3.5445 16.612C3.5445 16.3345 3.3075 16.147 3.003 16.147C2.6685 16.147 2.4525 16.375 2.4435 16.612H1.5585C1.5825 15.9115 2.118 15.4315 3.0375 15.4315C3.9195 15.4285 4.4685 15.868 4.473 16.486C4.47584 16.6979 4.40314 16.904 4.26792 17.0672C4.1327 17.2305 3.94379 17.3403 3.735 17.377V17.4265C3.97171 17.4441 4.19251 17.5523 4.35148 17.7286C4.51044 17.9049 4.59533 18.1357 4.5885 18.373C4.593 19.1725 3.8355 19.573 3.012 19.573C2.028 19.573 1.512 19.018 1.5 18.382H2.373C2.385 18.649 2.652 18.841 3.006 18.8455C3.387 18.8455 3.642 18.628 3.639 18.3205C3.636 18.028 3.4065 17.7985 3.018 17.7985H2.568H2.5695ZM2.5635 10.75H1.6575V10.6975C1.6575 10.0855 2.1 9.43145 3.0945 9.43145C3.969 9.43145 4.5345 9.92045 4.5345 10.5655C4.5345 11.149 4.149 11.491 3.8205 11.8375L3.015 12.6955V12.7405H4.596V13.501H1.7145V12.9085L3.15 11.4235C3.357 11.2105 3.5895 10.9675 3.5895 10.6615C3.5895 10.3915 3.369 10.1815 3.0765 10.1815C3.00897 10.179 2.94166 10.1903 2.87869 10.2149C2.81573 10.2394 2.75845 10.2766 2.71039 10.324C2.66233 10.3715 2.62451 10.4284 2.59924 10.4911C2.57398 10.5537 2.56182 10.6209 2.5635 10.6885V10.75ZM3.846 7.50095H2.8935V4.38695H2.847L1.95 5.01695V4.16645L2.8935 3.50195H3.846V7.50095Z" fill="black"/>
</svg>
