<svg width="24" height="24" viewBox="0 0 24 24" fill="none" xmlns="http://www.w3.org/2000/svg">
<path d="M7.5022 4.4424C8.81842 3.51257 10.3883 3.0091 11.9998 3C15.3394 3 17.3866 4.782 18.1198 5.76C18.1907 5.85455 18.2423 5.96215 18.2716 6.07664C18.301 6.19113 18.3075 6.31028 18.2908 6.42728C18.274 6.54428 18.2344 6.65685 18.1742 6.75854C18.114 6.86024 18.0344 6.94909 17.9398 7.02C17.8453 7.09091 17.7377 7.14251 17.6232 7.17184C17.5087 7.20118 17.3895 7.20767 17.2725 7.19095C17.1555 7.17424 17.043 7.13464 16.9413 7.07443C16.8396 7.01421 16.7507 6.93455 16.6798 6.84C16.213 6.2184 14.6602 4.8 11.9998 4.8C10.7631 4.80898 9.55855 5.19541 8.54741 5.9076C7.597 6.5868 7.1998 7.326 7.1998 7.8C7.1998 8.736 7.651 9.342 8.53181 9.852C8.74781 9.978 8.98421 10.092 9.235 10.2H6.19421C5.70461 9.5724 5.3998 8.7864 5.3998 7.8C5.3998 6.474 6.3526 5.2632 7.5022 4.4424ZM19.7998 12C20.0385 12 20.2674 12.0948 20.4362 12.2636C20.605 12.4324 20.6998 12.6613 20.6998 12.9C20.6998 13.1387 20.605 13.3676 20.4362 13.5364C20.2674 13.7052 20.0385 13.8 19.7998 13.8H17.8054C18.295 14.4276 18.5998 15.2136 18.5998 16.2C18.5998 17.8296 17.551 19.0512 16.3054 19.8168C15.055 20.586 13.465 21 11.9998 21C10.6294 21 9.4402 20.8452 8.4094 20.4024C7.357 19.9488 6.5338 19.224 5.851 18.1992C5.7839 18.1009 5.73696 17.9903 5.7129 17.8737C5.68884 17.7571 5.68814 17.637 5.71084 17.5201C5.73354 17.4033 5.77919 17.2921 5.84514 17.193C5.9111 17.094 5.99605 17.0089 6.09509 16.9429C6.19412 16.8769 6.30526 16.8312 6.42209 16.8084C6.53891 16.7856 6.65909 16.7862 6.77567 16.8102C6.89225 16.8342 7.00292 16.8811 7.10126 16.9481C7.19961 17.0152 7.28368 17.101 7.34861 17.2008C7.8646 17.976 8.4298 18.4512 9.121 18.7488C9.8338 19.0548 10.7458 19.2 12.001 19.2C13.1602 19.2 14.419 18.864 15.3622 18.2832C16.3114 17.7 16.7998 16.9692 16.7998 16.2C16.7998 15.264 16.3486 14.658 15.4678 14.148C15.2518 14.022 15.0154 13.908 14.7646 13.8H4.1998C3.96111 13.8 3.73219 13.7052 3.56341 13.5364C3.39463 13.3676 3.2998 13.1387 3.2998 12.9C3.2998 12.6613 3.39463 12.4324 3.56341 12.2636C3.73219 12.0948 3.96111 12 4.1998 12H19.7998Z" fill="black"/>
</svg>
