<svg width="24" height="24" viewBox="0 0 24 24" fill="none" xmlns="http://www.w3.org/2000/svg">
<path d="M19.1998 3H10.4998C10.2014 3 9.91529 3.11853 9.70431 3.3295C9.49333 3.54048 9.3748 3.82663 9.3748 4.125C9.3748 4.42337 9.49333 4.70952 9.70431 4.9205C9.91529 5.13147 10.2014 5.25 10.4998 5.25H13.5148L8.3728 18.75H4.7998C4.50144 18.75 4.21529 18.8685 4.00431 19.0795C3.79333 19.2905 3.6748 19.5766 3.6748 19.875C3.6748 20.1734 3.79333 20.4595 4.00431 20.6705C4.21529 20.8815 4.50144 21 4.7998 21H13.4998C13.7982 21 14.0843 20.8815 14.2953 20.6705C14.5063 20.4595 14.6248 20.1734 14.6248 19.875C14.6248 19.5766 14.5063 19.2905 14.2953 19.0795C14.0843 18.8685 13.7982 18.75 13.4998 18.75H10.7818L15.9238 5.25H19.1998C19.4982 5.25 19.7843 5.13147 19.9953 4.9205C20.2063 4.70952 20.3248 4.42337 20.3248 4.125C20.3248 3.82663 20.2063 3.54048 19.9953 3.3295C19.7843 3.11853 19.4982 3 19.1998 3Z" fill="black"/>
</svg>
